<svg id="TrustedSourceSVG" width="200" height="40" viewBox="0 0 200 40" fill="none" xmlns="http://www.w3.org/2000/svg">
<path d="M0 3.66309H4.8147V21.359H8.18088V3.66309H12.9832V0.535513H0V3.66309Z" fill="#242420"/>
<path d="M22.3704 7.78583C21.7531 7.78583 21.2058 7.90332 20.749 8.13019C20.354 8.32465 19.9013 8.66901 19.4075 9.15921V8.14639H16.1483V21.3576H19.4075V14.5109C19.4075 12.0802 20.1894 10.9013 21.8025 10.9013C22.3292 10.9013 22.8807 11.0998 23.4403 11.4968L23.5391 11.5657L25.0329 8.62444L24.9506 8.57583C24.0617 8.05321 23.1934 7.78583 22.3745 7.78583H22.3704Z" fill="#242420"/>
<path d="M37.2791 15.7144C37.2791 17.821 36.4643 18.846 34.7894 18.846C33.1146 18.846 32.2998 17.821 32.2998 15.7144V8.14658H29.0406V15.7792C29.0406 16.9783 29.1723 17.902 29.4274 18.5138C29.6949 19.2025 30.1558 19.8304 30.7978 20.3855C31.843 21.2808 33.1845 21.7305 34.7853 21.7305C36.3861 21.7305 37.74 21.2767 38.7894 20.3814C39.4231 19.8304 39.8757 19.2025 40.135 18.5097C40.3984 17.744 40.5342 16.8285 40.5342 15.7792V8.14658H37.275V15.7144H37.2791Z" fill="#242420"/>
<path d="M50.8347 12.9468C49.7072 12.4768 49.1352 12.0109 49.1352 11.5572C49.1352 11.2979 49.2216 11.0954 49.4027 10.9293C49.5837 10.7632 49.7936 10.6821 50.0529 10.6821C50.5961 10.6821 51.0611 11.067 51.4397 11.8286L51.4849 11.9218L54.1886 10.5039L54.1474 10.4147C53.3079 8.6646 52.0076 7.77737 50.2833 7.77737C49.1146 7.77737 48.1023 8.15819 47.2834 8.91173C46.4809 9.66526 46.0735 10.6376 46.0735 11.7881C46.0735 12.6632 46.3122 13.3924 46.7896 13.9475C47.1599 14.385 47.7978 14.8225 48.6949 15.256C49.0117 15.4059 49.3245 15.5558 49.6331 15.6976C49.9418 15.8394 50.2463 15.9852 50.5467 16.1351C51.3039 16.5767 51.6907 17.0507 51.6907 17.545C51.6907 18.412 51.2174 18.8333 50.2463 18.8333C49.7607 18.8333 49.3368 18.6712 48.987 18.3512C48.806 18.1891 48.5344 17.8002 48.1805 17.1885L48.1352 17.1074L45.3534 18.3755L45.3945 18.4646C46.3287 20.624 47.9459 21.7178 50.1969 21.7178C51.5096 21.7178 52.6454 21.3046 53.5754 20.4903C54.5342 19.6273 55.0198 18.5416 55.0198 17.2654C55.0198 16.2648 54.7277 15.4545 54.1515 14.859C53.5837 14.2716 52.4726 13.6274 50.8471 12.9387L50.8347 12.9468Z" fill="#242420"/>
<path d="M62.9783 3.37786H59.7232V8.14621H58.4187V11.1523H59.7232V21.3574H62.9783V11.1523H65.3527V8.14621H62.9783V3.37786Z" fill="#242420"/>
<path d="M79.1467 16.3798C78.5335 17.3278 77.978 17.9841 77.5047 18.3285C77.0274 18.6688 76.4142 18.843 75.6817 18.843C74.7394 18.843 73.9534 18.5391 73.3526 17.9395C72.7682 17.3481 72.4267 16.55 72.332 15.5614H81.7886L81.805 14.7512C81.805 12.5919 81.2289 10.8741 80.0973 9.64659C78.9533 8.41096 77.373 7.78301 75.4101 7.78301C73.4472 7.78301 71.8752 8.42716 70.6942 9.69926C69.5255 10.9876 68.9329 12.6891 68.9329 14.7633C68.9329 16.8376 69.5461 18.5594 70.7518 19.8274C71.9616 21.0874 73.583 21.7275 75.5747 21.7275C76.2661 21.7275 76.9204 21.6546 77.513 21.5128C78.1096 21.3669 78.6693 21.136 79.1837 20.8281C79.6981 20.5162 80.1837 20.1151 80.6322 19.633C81.0767 19.159 81.5046 18.5756 81.9079 17.899L81.9614 17.8099L79.2084 16.2988L79.1549 16.3798H79.1467ZM72.5583 12.8998C72.653 12.5878 72.7805 12.3042 72.9452 12.053C73.1303 11.7695 73.3526 11.5223 73.6077 11.3238C73.8628 11.1213 74.1509 10.9673 74.4636 10.8579C74.7764 10.7526 75.1179 10.6959 75.476 10.6959C77.0233 10.6959 77.9862 11.417 78.4224 12.8957H72.5625L72.5583 12.8998Z" fill="#242420"/>
<path d="M96.7469 9.51238C95.5535 8.36587 94.1914 7.78654 92.6976 7.78654C90.8952 7.78654 89.3767 8.45905 88.1833 9.78382C86.9858 11.0964 86.3809 12.7575 86.3809 14.7142C86.3809 16.671 86.9858 18.409 88.1833 19.7499C89.3931 21.0666 90.9322 21.7351 92.7634 21.7351C94.2325 21.7351 95.5699 21.1962 96.7428 20.1348V21.3623H100.014V0H96.7428V9.51238H96.7469ZM95.9197 17.7284C95.249 18.4697 94.3519 18.8425 93.2572 18.8425C92.2367 18.8425 91.3766 18.4535 90.7017 17.6878C90.0433 16.9262 89.71 15.9255 89.71 14.7102C89.71 13.5758 90.0516 12.6076 90.7305 11.8378C91.4137 11.0802 92.2737 10.6954 93.2861 10.6954C94.3642 10.6954 95.249 11.0762 95.9197 11.8216C96.5946 12.5913 96.9403 13.5839 96.9403 14.775C96.9403 15.9661 96.5987 16.9586 95.9238 17.7243L95.9197 17.7284Z" fill="#242420"/>
<path d="M113.948 8.90064L111.858 8.05798C110.389 7.46244 109.644 6.67649 109.644 5.72039C109.644 5.02358 109.924 4.44019 110.475 3.9824C111.031 3.51245 111.743 3.27343 112.59 3.27343C113.282 3.27343 113.854 3.41117 114.29 3.68666C114.705 3.92568 115.154 4.45235 115.623 5.2545L115.677 5.34363L118.417 3.74337L118.368 3.6583C116.944 1.23159 115.014 0 112.623 0C110.915 0 109.381 0.583383 108.064 1.73394C106.841 2.79133 106.224 4.12419 106.224 5.69609C106.224 8.02557 107.693 9.82028 110.59 11.0235L112.611 11.85C113.125 12.0687 113.578 12.3037 113.952 12.5427C114.323 12.7818 114.627 13.037 114.858 13.3125C115.088 13.5799 115.257 13.8797 115.368 14.1997C115.475 14.5238 115.533 14.8803 115.533 15.2692C115.533 16.2334 115.216 17.0437 114.586 17.6676C113.957 18.2955 113.158 18.6115 112.203 18.6115C110.998 18.6115 110.064 18.1781 109.438 17.3151C109.088 16.8695 108.841 16.039 108.697 14.852L108.685 14.7426L105.278 15.4799L105.29 15.5731C105.582 17.5096 106.327 19.0369 107.508 20.1065C108.706 21.18 110.245 21.7229 112.08 21.7229C114.018 21.7229 115.66 21.0828 116.969 19.8229C118.269 18.571 118.928 16.9667 118.928 15.0505C118.928 13.6163 118.524 12.3888 117.726 11.4003C116.932 10.4158 115.664 9.57315 113.952 8.89254L113.948 8.90064Z" fill="#242420"/>
<path d="M130.549 7.78706C128.569 7.78706 126.866 8.46362 125.483 9.79244C124.105 11.1253 123.405 12.762 123.405 14.658C123.405 16.6715 124.092 18.3649 125.442 19.6978C126.796 21.0469 128.495 21.7315 130.495 21.7315C132.495 21.7315 134.24 21.0631 135.627 19.7383C137.005 18.4054 137.705 16.7323 137.705 14.7633C137.705 12.7944 137.01 11.1415 135.639 9.80054C134.252 8.45957 132.536 7.78301 130.549 7.78301V7.78706ZM134.38 14.7796C134.38 16.0111 134.03 17.0078 133.335 17.741C132.643 18.4743 131.705 18.843 130.549 18.843C129.392 18.843 128.462 18.4662 127.763 17.7289C127.08 16.9956 126.73 15.9787 126.73 14.7107C126.73 13.5318 127.084 12.5595 127.788 11.814C128.487 11.0726 129.417 10.6959 130.549 10.6959C131.68 10.6959 132.635 11.0726 133.335 11.814C134.026 12.5473 134.38 13.5439 134.38 14.7755V14.7796Z" fill="#242420"/>
<path d="M151.051 15.7144C151.051 17.821 150.236 18.846 148.561 18.846C146.886 18.846 146.071 17.821 146.071 15.7144V8.14658H142.812V15.7792C142.812 16.9783 142.944 17.902 143.199 18.5138C143.466 19.2025 143.927 19.8304 144.569 20.3855C145.615 21.2808 146.956 21.7305 148.557 21.7305C150.158 21.7305 151.512 21.2767 152.557 20.3814C153.19 19.8304 153.643 19.2025 153.902 18.5097C154.166 17.744 154.302 16.8285 154.302 15.7792V8.14658H151.042V15.7144H151.051Z" fill="#242420"/>
<path d="M166.26 7.78583C165.643 7.78583 165.096 7.90332 164.639 8.13019C164.244 8.32465 163.791 8.66901 163.298 9.15921V8.14639H160.038V21.3576H163.298V14.5109C163.298 12.0802 164.079 10.9013 165.693 10.9013C166.219 10.9013 166.771 11.0998 167.326 11.4968L167.425 11.5657L168.919 8.62444L168.837 8.57583C167.948 8.05321 167.079 7.78583 166.26 7.78583Z" fill="#242420"/>
<path d="M178.964 7.78547C176.918 7.78547 175.169 8.47014 173.762 9.81921C172.355 11.1683 171.643 12.8455 171.643 14.8063C171.643 16.7671 172.346 18.4322 173.737 19.7529C175.124 21.0655 176.873 21.7299 178.935 21.7299C180.186 21.7299 181.449 21.4058 182.7 20.7698L182.754 20.7414V16.4309L182.572 16.6497C181.852 17.5085 181.219 18.096 180.688 18.3876C180.145 18.6874 179.511 18.8414 178.799 18.8414C177.684 18.8414 176.758 18.4565 176.038 17.6989C175.326 16.9373 174.968 15.9488 174.968 14.7618C174.968 13.5747 175.342 12.6227 176.079 11.8529C176.815 11.0832 177.754 10.6943 178.865 10.6943C179.577 10.6943 180.202 10.8523 180.729 11.1602C181.268 11.464 181.889 12.0353 182.572 12.8577L182.754 13.0764V8.73752L182.7 8.70916C181.531 8.08932 180.276 7.77737 178.964 7.77737V7.78547Z" fill="#242420"/>
<path d="M197.239 16.3016L197.185 16.3826C196.572 17.3306 196.017 17.9869 195.543 18.3313C195.066 18.6716 194.453 18.8458 193.716 18.8458C192.774 18.8458 191.988 18.542 191.391 17.9424C190.807 17.3509 190.465 16.5528 190.371 15.5643H199.827L199.844 14.754C199.844 12.5947 199.267 10.8769 198.136 9.64941C196.992 8.41378 195.412 7.78583 193.449 7.78583C191.486 7.78583 189.914 8.42998 188.733 9.70208C187.564 10.9904 186.971 12.6919 186.971 14.7662C186.971 16.8404 187.585 18.5622 188.79 19.8303C189.996 21.0902 191.622 21.7303 193.613 21.7303C194.305 21.7303 194.959 21.6574 195.552 21.5156C196.148 21.3697 196.708 21.1388 197.222 20.8309C197.737 20.519 198.222 20.1179 198.671 19.6358C199.115 19.1577 199.543 18.5744 199.947 17.9018L200 17.8127L197.247 16.3016H197.239ZM196.461 12.9026H190.601C190.696 12.5906 190.823 12.307 190.988 12.0559C191.173 11.7723 191.395 11.5252 191.65 11.3266C191.906 11.1241 192.194 10.9701 192.506 10.8607C192.819 10.7554 193.161 10.6987 193.519 10.6987C195.066 10.6987 196.029 11.4198 196.465 12.8985L196.461 12.9026Z" fill="#242420"/>
<path d="M1.49926 37.6087V34.1646H3.92889C5.66246 34.1646 6.67371 32.9689 6.67371 31.5523C6.67371 30.1357 5.68872 28.94 3.92889 28.94H0.40921V37.6087H1.49926ZM3.79756 33.2028H1.49926V29.9017H3.79756C4.83507 29.9017 5.54426 30.5776 5.54426 31.5523C5.54426 32.527 4.83507 33.2028 3.79756 33.2028Z" fill="#242420"/>
<path d="M11.6894 37.6087V33.1639C11.9784 32.657 12.8057 32.1631 13.4099 32.1631C13.5675 32.1631 13.6857 32.1761 13.8039 32.2021V31.2014C12.9371 31.2014 12.2016 31.6823 11.6894 32.3451V31.3314H10.7044V37.6087H11.6894Z" fill="#242420"/>
<path d="M20.4371 37.7646C22.3677 37.7646 23.5759 36.283 23.5759 34.4635C23.5759 32.644 22.3677 31.1754 20.4371 31.1754C18.5065 31.1754 17.2983 32.644 17.2983 34.4635C17.2983 36.283 18.5065 37.7646 20.4371 37.7646ZM20.4371 36.8938C19.0844 36.8938 18.3227 35.7502 18.3227 34.4635C18.3227 33.1898 19.0844 32.0462 20.4371 32.0462C21.7898 32.0462 22.5384 33.1898 22.5384 34.4635C22.5384 35.7502 21.7898 36.8938 20.4371 36.8938Z" fill="#242420"/>
<path d="M33.3899 37.6087V28.94H32.4049V32.2801C31.8927 31.5913 31.1178 31.1754 30.2642 31.1754C28.5963 31.1754 27.4406 32.475 27.4406 34.4765C27.4406 36.5169 28.6094 37.7646 30.2642 37.7646C31.1572 37.7646 31.9321 37.3097 32.4049 36.6729V37.6087H33.3899ZM30.5006 36.8938C29.2267 36.8938 28.4649 35.8671 28.4649 34.4765C28.4649 33.0859 29.2267 32.0462 30.5006 32.0462C31.2886 32.0462 32.0503 32.514 32.4049 33.0599V35.9061C32.0503 36.452 31.2886 36.8938 30.5006 36.8938Z" fill="#242420"/>
<path d="M43.2554 37.6087V31.3314H42.2704V35.9451C41.9027 36.452 41.1672 36.8938 40.3924 36.8938C39.5387 36.8938 38.974 36.5689 38.974 35.4642V31.3314H37.989V35.7631C37.989 37.1278 38.6851 37.7646 40.0115 37.7646C40.9571 37.7646 41.7845 37.2707 42.2704 36.7249V37.6087H43.2554Z" fill="#242420"/>
<path d="M50.6465 37.7646C51.8022 37.7646 52.4851 37.2967 52.971 36.6729L52.3144 36.0751C51.8941 36.6339 51.3557 36.8938 50.699 36.8938C49.3463 36.8938 48.5058 35.8541 48.5058 34.4635C48.5058 33.0729 49.3463 32.0462 50.699 32.0462C51.3557 32.0462 51.8941 32.2931 52.3144 32.8649L52.971 32.2671C52.4851 31.6433 51.8022 31.1754 50.6465 31.1754C48.7553 31.1754 47.4814 32.605 47.4814 34.4635C47.4814 36.335 48.7553 37.7646 50.6465 37.7646Z" fill="#242420"/>
<path d="M58.5804 37.7646C59.1583 37.7646 59.5129 37.5957 59.7624 37.3617L59.4735 36.6339C59.3421 36.7769 59.0795 36.8938 58.8037 36.8938C58.3703 36.8938 58.1602 36.5559 58.1602 36.0881V32.1891H59.4472V31.3314H58.1602V29.6158H57.1752V31.3314H56.1245V32.1891H57.1752V36.296C57.1752 37.2318 57.648 37.7646 58.5804 37.7646Z" fill="#242420"/>
<path d="M75.2563 37.6087V36.6469H70.6072V33.6577H75.1644V32.696H70.6072V29.9017H75.2563V28.94H69.5171V37.6087H75.2563Z" fill="#242420"/>
<path d="M84.8348 37.6087L82.392 34.3855L84.6903 31.3314H83.5477L81.7879 33.7227L80.028 31.3314H78.8855L81.1838 34.3855L78.7541 37.6087H79.8836L81.7879 35.0353L83.6922 37.6087H84.8348Z" fill="#242420"/>
<path d="M91.7208 37.7646C93.3887 37.7646 94.5444 36.491 94.5444 34.4635C94.5444 32.4231 93.3887 31.1754 91.7208 31.1754C90.8278 31.1754 90.0398 31.6303 89.5801 32.2671V31.3314H88.5951V40H89.5801V36.6599C90.0923 37.3617 90.854 37.7646 91.7208 37.7646ZM91.4713 36.8938C90.6964 36.8938 89.9216 36.426 89.5801 35.8801V33.0469C89.9216 32.501 90.6964 32.0462 91.4713 32.0462C92.7452 32.0462 93.5069 33.0729 93.5069 34.4635C93.5069 35.8541 92.7452 36.8938 91.4713 36.8938Z" fill="#242420"/>
<path d="M101.6 37.7646C102.638 37.7646 103.492 37.4267 104.122 36.8029L103.649 36.166C103.15 36.6729 102.415 36.9588 101.692 36.9588C100.327 36.9588 99.486 35.9711 99.4072 34.7884H104.542V34.5415C104.542 32.657 103.413 31.1754 101.495 31.1754C99.683 31.1754 98.3697 32.644 98.3697 34.4635C98.3697 36.426 99.7224 37.7646 101.6 37.7646ZM103.57 34.0736H99.4072C99.4597 33.1119 100.13 31.9812 101.482 31.9812C102.927 31.9812 103.557 33.1379 103.57 34.0736Z" fill="#242420"/>
<path d="M109.749 37.6087V33.1639C110.038 32.657 110.866 32.1631 111.47 32.1631C111.627 32.1631 111.745 32.1761 111.864 32.2021V31.2014C110.997 31.2014 110.261 31.6823 109.749 32.3451V31.3314H108.764V37.6087H109.749Z" fill="#242420"/>
<path d="M116.212 30.4346C116.579 30.4346 116.882 30.1487 116.882 29.7848C116.882 29.4209 116.579 29.122 116.212 29.122C115.857 29.122 115.555 29.4209 115.555 29.7848C115.555 30.1487 115.857 30.4346 116.212 30.4346ZM116.711 37.6087V31.3314H115.726V37.6087H116.711Z" fill="#242420"/>
<path d="M124.165 37.7646C125.203 37.7646 126.056 37.4267 126.687 36.8029L126.214 36.166C125.715 36.6729 124.98 36.9588 124.257 36.9588C122.891 36.9588 122.051 35.9711 121.972 34.7884H127.107V34.5415C127.107 32.657 125.978 31.1754 124.06 31.1754C122.248 31.1754 120.935 32.644 120.935 34.4635C120.935 36.426 122.287 37.7646 124.165 37.7646ZM126.135 34.0736H121.972C122.025 33.1119 122.694 31.9812 124.047 31.9812C125.492 31.9812 126.122 33.1379 126.135 34.0736Z" fill="#242420"/>
<path d="M136.595 37.6087V33.2028C136.595 31.8382 135.899 31.1754 134.573 31.1754C133.627 31.1754 132.761 31.7212 132.314 32.2411V31.3314H131.329V37.6087H132.314V33.0209C132.682 32.514 133.417 32.0462 134.192 32.0462C135.046 32.0462 135.61 32.3971 135.61 33.5018V37.6087H136.595Z" fill="#242420"/>
<path d="M143.987 37.7646C145.142 37.7646 145.825 37.2967 146.311 36.6729L145.654 36.0751C145.234 36.6339 144.696 36.8938 144.039 36.8938C142.686 36.8938 141.846 35.8541 141.846 34.4635C141.846 33.0729 142.686 32.0462 144.039 32.0462C144.696 32.0462 145.234 32.2931 145.654 32.8649L146.311 32.2671C145.825 31.6433 145.142 31.1754 143.987 31.1754C142.095 31.1754 140.821 32.605 140.821 34.4635C140.821 36.335 142.095 37.7646 143.987 37.7646Z" fill="#242420"/>
<path d="M153.181 37.7646C154.219 37.7646 155.072 37.4267 155.703 36.8029L155.23 36.166C154.731 36.6729 153.996 36.9588 153.273 36.9588C151.907 36.9588 151.067 35.9711 150.988 34.7884H156.123V34.5415C156.123 32.657 154.994 31.1754 153.076 31.1754C151.264 31.1754 149.951 32.644 149.951 34.4635C149.951 36.426 151.303 37.7646 153.181 37.7646ZM155.151 34.0736H150.988C151.041 33.1119 151.71 31.9812 153.063 31.9812C154.508 31.9812 155.138 33.1379 155.151 34.0736Z" fill="#242420"/>
<path d="M173.699 37.6087V28.94H172.609V32.67H167.487V28.94H166.397V37.6087H167.487V33.6317H172.609V37.6087H173.699Z" fill="#242420"/>
<path d="M183.6 37.6087V31.3314H182.615V35.9451C182.248 36.452 181.512 36.8938 180.737 36.8938C179.884 36.8938 179.319 36.5689 179.319 35.4642V31.3314H178.334V35.7631C178.334 37.1278 179.03 37.7646 180.356 37.7646C181.302 37.7646 182.129 37.2707 182.615 36.7249V37.6087H183.6Z" fill="#242420"/>
<path d="M189.179 35.9061V33.0599C189.52 32.514 190.295 32.0462 191.07 32.0462C192.357 32.0462 193.119 33.0859 193.119 34.4765C193.119 35.8671 192.357 36.8938 191.07 36.8938C190.295 36.8938 189.52 36.452 189.179 35.9061ZM189.179 37.6087V36.6729C189.652 37.3097 190.427 37.7646 191.32 37.7646C192.974 37.7646 194.143 36.5169 194.143 34.4765C194.143 32.475 192.974 31.1754 191.32 31.1754C190.453 31.1754 189.691 31.5913 189.179 32.2801V28.94H188.194V37.6087H189.179Z" fill="#242420"/>
<path d="M199.307 35.1783L199.517 28.94H198.283L198.493 35.1783H199.307ZM198.9 37.7386C199.294 37.7386 199.622 37.4007 199.622 37.0238C199.622 36.6339 199.294 36.309 198.9 36.309C198.506 36.309 198.178 36.6339 198.178 37.0238C198.178 37.4007 198.506 37.7386 198.9 37.7386Z" fill="#242420"/>
</svg>
